<svg width="20" height="20" viewBox="0 0 20 20" fill="none" xmlns="http://www.w3.org/2000/svg">
<g clip-path="url(#clip0_16_67)">
<path d="M7.50001 0.833313V3.33331M12.5 0.833313V3.33331M7.50001 16.6666V19.1666M12.5 16.6666V19.1666M16.6667 7.49998H19.1667M16.6667 11.6666H19.1667M0.833344 7.49998H3.33334M0.833344 11.6666H3.33334M5.00001 3.33331H15C15.9205 3.33331 16.6667 4.0795 16.6667 4.99998V15C16.6667 15.9205 15.9205 16.6666 15 16.6666H5.00001C4.07954 16.6666 3.33334 15.9205 3.33334 15V4.99998C3.33334 4.0795 4.07954 3.33331 5.00001 3.33331ZM7.50001 7.49998H12.5V12.5H7.50001V7.49998Z" stroke="#535353" stroke-width="2" stroke-linecap="round" stroke-linejoin="round"/>
</g>
<defs>
<clipPath id="clip0_16_67">
<rect width="20" height="20" fill="white"/>
</clipPath>
</defs>
</svg>
