<svg width="50" height="50" viewBox="0 0 50 50" fill="none" xmlns="http://www.w3.org/2000/svg">
<g filter="url(#filter0_d_16_135)">
<rect x="5" y="5" width="40" height="40" rx="20" fill="#DDBCFF"/>
<path fill-rule="evenodd" clip-rule="evenodd" d="M31.0002 21C31.0002 24.3137 28.314 27 25.0002 27C21.6865 27 19.0002 24.3137 19.0002 21C19.0002 17.6863 21.6865 15 25.0002 15C28.314 15 31.0002 17.6863 31.0002 21ZM29.0002 21C29.0002 23.2091 27.2094 25 25.0002 25C22.7911 25 21.0002 23.2091 21.0002 21C21.0002 18.7909 22.7911 17 25.0002 17C27.2094 17 29.0002 18.7909 29.0002 21Z" fill="#4F378A"/>
<path d="M25.0002 30C18.5259 30 13.0095 33.8284 10.9082 39.192C11.4201 39.7004 11.9593 40.1812 12.5235 40.6321C14.0883 35.7077 18.997 32 25.0002 32C31.0035 32 35.9122 35.7077 37.477 40.6321C38.0412 40.1812 38.5804 39.7004 39.0923 39.1921C36.991 33.8284 31.4746 30 25.0002 30Z" fill="#4F378A"/>
</g>
<defs>
<filter id="filter0_d_16_135" x="0" y="0" width="50" height="50" filterUnits="userSpaceOnUse" color-interpolation-filters="sRGB">
<feFlood flood-opacity="0" result="BackgroundImageFix"/>
<feColorMatrix in="SourceAlpha" type="matrix" values="0 0 0 0 0 0 0 0 0 0 0 0 0 0 0 0 0 0 127 0" result="hardAlpha"/>
<feMorphology radius="1" operator="dilate" in="SourceAlpha" result="effect1_dropShadow_16_135"/>
<feOffset/>
<feGaussianBlur stdDeviation="2"/>
<feComposite in2="hardAlpha" operator="out"/>
<feColorMatrix type="matrix" values="0 0 0 0 0 0 0 0 0 0 0 0 0 0 0 0 0 0 0.25 0"/>
<feBlend mode="normal" in2="BackgroundImageFix" result="effect1_dropShadow_16_135"/>
<feBlend mode="normal" in="SourceGraphic" in2="effect1_dropShadow_16_135" result="shape"/>
</filter>
</defs>
</svg>
