<svg width="20" height="20" viewBox="0 0 20 20" fill="none" xmlns="http://www.w3.org/2000/svg">
<g clip-path="url(#clip0_36_8)">
<path d="M0.833344 3.33331V8.33331M0.833344 8.33331H5.83334M0.833344 8.33331L4.70001 4.69998C5.85077 3.55116 7.34372 2.80745 8.95391 2.58091C10.5641 2.35436 12.2043 2.65726 13.6274 3.44395C15.0504 4.23064 16.1793 5.45851 16.8439 6.94256C17.5084 8.42661 17.6727 10.0864 17.3119 11.6719C16.9511 13.2575 16.0847 14.6828 14.8434 15.7331C13.6022 16.7835 12.0531 17.4019 10.4298 17.4954C8.80641 17.5888 7.19666 17.1521 5.84306 16.2511C4.48946 15.3501 3.46534 14.0336 2.92501 12.5" stroke="#535353" stroke-width="2" stroke-linecap="round" stroke-linejoin="round"/>
</g>
<defs>
<clipPath id="clip0_36_8">
<rect width="20" height="20" fill="white"/>
</clipPath>
</defs>
</svg>
